%TF.GenerationSoftware,KiCad,Pcbnew,7.0.1*%
%TF.CreationDate,2023-04-30T16:49:33+02:00*%
%TF.ProjectId,Controller,436f6e74-726f-46c6-9c65-722e6b696361,rev?*%
%TF.SameCoordinates,Original*%
%TF.FileFunction,Soldermask,Bot*%
%TF.FilePolarity,Negative*%
%FSLAX46Y46*%
G04 Gerber Fmt 4.6, Leading zero omitted, Abs format (unit mm)*
G04 Created by KiCad (PCBNEW 7.0.1) date 2023-04-30 16:49:33*
%MOMM*%
%LPD*%
G01*
G04 APERTURE LIST*
%ADD10O,0.800000X1.800000*%
%ADD11C,0.889000*%
%ADD12C,0.800000*%
%ADD13C,6.400000*%
%ADD14C,0.650000*%
%ADD15O,2.100000X1.000000*%
%ADD16O,1.600000X1.000000*%
G04 APERTURE END LIST*
D10*
%TO.C,J5*%
X177112399Y-80105000D03*
D11*
X177112599Y-69705000D03*
%TD*%
D12*
%TO.C,H4*%
X178930000Y-125905000D03*
X179632944Y-124207944D03*
X179632944Y-127602056D03*
X181330000Y-123505000D03*
D13*
X181330000Y-125905000D03*
D12*
X181330000Y-128305000D03*
X183027056Y-124207944D03*
X183027056Y-127602056D03*
X183730000Y-125905000D03*
%TD*%
D14*
%TO.C,J1*%
X120930000Y-72015000D03*
X120930000Y-77795000D03*
D15*
X121460000Y-70585000D03*
D16*
X117280000Y-70585000D03*
D15*
X121460000Y-79225000D03*
D16*
X117280000Y-79225000D03*
%TD*%
D12*
%TO.C,H3*%
X116930000Y-125905000D03*
X117632944Y-124207944D03*
X117632944Y-127602056D03*
X119330000Y-123505000D03*
D13*
X119330000Y-125905000D03*
D12*
X119330000Y-128305000D03*
X121027056Y-124207944D03*
X121027056Y-127602056D03*
X121730000Y-125905000D03*
%TD*%
%TO.C,H1*%
X116930000Y-63905000D03*
X117632944Y-62207944D03*
X117632944Y-65602056D03*
X119330000Y-61505000D03*
D13*
X119330000Y-63905000D03*
D12*
X119330000Y-66305000D03*
X121027056Y-62207944D03*
X121027056Y-65602056D03*
X121730000Y-63905000D03*
%TD*%
%TO.C,H2*%
X178930000Y-63905000D03*
X179632944Y-62207944D03*
X179632944Y-65602056D03*
X181330000Y-61505000D03*
D13*
X181330000Y-63905000D03*
D12*
X181330000Y-66305000D03*
X183027056Y-62207944D03*
X183027056Y-65602056D03*
X183730000Y-63905000D03*
%TD*%
M02*
