%TF.GenerationSoftware,KiCad,Pcbnew,7.0.1*%
%TF.CreationDate,2023-04-30T16:49:33+02:00*%
%TF.ProjectId,Controller,436f6e74-726f-46c6-9c65-722e6b696361,rev?*%
%TF.SameCoordinates,Original*%
%TF.FileFunction,Soldermask,Top*%
%TF.FilePolarity,Negative*%
%FSLAX46Y46*%
G04 Gerber Fmt 4.6, Leading zero omitted, Abs format (unit mm)*
G04 Created by KiCad (PCBNEW 7.0.1) date 2023-04-30 16:49:33*
%MOMM*%
%LPD*%
G01*
G04 APERTURE LIST*
G04 Aperture macros list*
%AMRoundRect*
0 Rectangle with rounded corners*
0 $1 Rounding radius*
0 $2 $3 $4 $5 $6 $7 $8 $9 X,Y pos of 4 corners*
0 Add a 4 corners polygon primitive as box body*
4,1,4,$2,$3,$4,$5,$6,$7,$8,$9,$2,$3,0*
0 Add four circle primitives for the rounded corners*
1,1,$1+$1,$2,$3*
1,1,$1+$1,$4,$5*
1,1,$1+$1,$6,$7*
1,1,$1+$1,$8,$9*
0 Add four rect primitives between the rounded corners*
20,1,$1+$1,$2,$3,$4,$5,0*
20,1,$1+$1,$4,$5,$6,$7,0*
20,1,$1+$1,$6,$7,$8,$9,0*
20,1,$1+$1,$8,$9,$2,$3,0*%
G04 Aperture macros list end*
%ADD10O,0.800000X1.800000*%
%ADD11C,0.889000*%
%ADD12R,2.895600X0.990600*%
%ADD13R,3.708400X1.905000*%
%ADD14RoundRect,0.250000X0.262500X0.450000X-0.262500X0.450000X-0.262500X-0.450000X0.262500X-0.450000X0*%
%ADD15RoundRect,0.243750X-0.243750X-0.456250X0.243750X-0.456250X0.243750X0.456250X-0.243750X0.456250X0*%
%ADD16RoundRect,0.112500X-0.112500X0.187500X-0.112500X-0.187500X0.112500X-0.187500X0.112500X0.187500X0*%
%ADD17RoundRect,0.250000X-0.450000X0.262500X-0.450000X-0.262500X0.450000X-0.262500X0.450000X0.262500X0*%
%ADD18R,0.650000X2.770000*%
%ADD19RoundRect,0.250000X-0.250000X-0.475000X0.250000X-0.475000X0.250000X0.475000X-0.250000X0.475000X0*%
%ADD20RoundRect,0.255000X-2.245000X-0.255000X2.245000X-0.255000X2.245000X0.255000X-2.245000X0.255000X0*%
%ADD21RoundRect,0.112500X0.112500X-0.187500X0.112500X0.187500X-0.112500X0.187500X-0.112500X-0.187500X0*%
%ADD22RoundRect,0.112500X0.187500X0.112500X-0.187500X0.112500X-0.187500X-0.112500X0.187500X-0.112500X0*%
%ADD23RoundRect,0.150000X-0.587500X-0.150000X0.587500X-0.150000X0.587500X0.150000X-0.587500X0.150000X0*%
%ADD24C,0.800000*%
%ADD25C,6.400000*%
%ADD26RoundRect,0.150000X0.512500X0.150000X-0.512500X0.150000X-0.512500X-0.150000X0.512500X-0.150000X0*%
%ADD27RoundRect,0.250000X-0.262500X-0.450000X0.262500X-0.450000X0.262500X0.450000X-0.262500X0.450000X0*%
%ADD28RoundRect,0.250000X0.450000X-0.262500X0.450000X0.262500X-0.450000X0.262500X-0.450000X-0.262500X0*%
%ADD29C,0.650000*%
%ADD30R,1.450000X0.600000*%
%ADD31R,1.450000X0.300000*%
%ADD32O,2.100000X1.000000*%
%ADD33O,1.600000X1.000000*%
%ADD34R,3.000000X1.000000*%
%ADD35RoundRect,0.250000X0.250000X0.475000X-0.250000X0.475000X-0.250000X-0.475000X0.250000X-0.475000X0*%
%ADD36RoundRect,0.250000X0.475000X-0.250000X0.475000X0.250000X-0.475000X0.250000X-0.475000X-0.250000X0*%
%ADD37R,0.900000X1.500000*%
%ADD38R,1.500000X0.900000*%
%ADD39R,0.900000X0.900000*%
%ADD40RoundRect,0.243750X0.243750X0.456250X-0.243750X0.456250X-0.243750X-0.456250X0.243750X-0.456250X0*%
%ADD41RoundRect,0.062500X-0.375000X-0.062500X0.375000X-0.062500X0.375000X0.062500X-0.375000X0.062500X0*%
%ADD42RoundRect,0.062500X-0.062500X-0.375000X0.062500X-0.375000X0.062500X0.375000X-0.062500X0.375000X0*%
%ADD43R,1.450000X1.450000*%
%ADD44RoundRect,0.150000X-0.625000X0.150000X-0.625000X-0.150000X0.625000X-0.150000X0.625000X0.150000X0*%
%ADD45RoundRect,0.250000X-0.650000X0.350000X-0.650000X-0.350000X0.650000X-0.350000X0.650000X0.350000X0*%
%ADD46RoundRect,0.250000X-2.500000X0.250000X-2.500000X-0.250000X2.500000X-0.250000X2.500000X0.250000X0*%
%ADD47RoundRect,0.250000X-1.250000X0.550000X-1.250000X-0.550000X1.250000X-0.550000X1.250000X0.550000X0*%
%ADD48R,1.200000X0.650000*%
%ADD49RoundRect,0.062500X-0.337500X-0.062500X0.337500X-0.062500X0.337500X0.062500X-0.337500X0.062500X0*%
%ADD50RoundRect,0.062500X-0.062500X-0.337500X0.062500X-0.337500X0.062500X0.337500X-0.062500X0.337500X0*%
%ADD51R,3.350000X3.350000*%
%ADD52RoundRect,0.250000X-0.475000X0.250000X-0.475000X-0.250000X0.475000X-0.250000X0.475000X0.250000X0*%
%ADD53R,1.500000X1.100000*%
%ADD54R,2.000000X1.500000*%
%ADD55R,2.000000X3.800000*%
G04 APERTURE END LIST*
D10*
%TO.C,J5*%
X177112399Y-80105000D03*
D11*
X177112599Y-69705000D03*
D12*
X175862599Y-71905001D03*
X175862599Y-73904999D03*
X175862599Y-75905001D03*
X175862599Y-77904999D03*
D13*
X180512600Y-80255001D03*
X180512600Y-69554999D03*
%TD*%
D14*
%TO.C,R11*%
X127417500Y-86905000D03*
X129242500Y-86905000D03*
%TD*%
%TO.C,R19*%
X127417500Y-95155000D03*
X129242500Y-95155000D03*
%TD*%
D15*
%TO.C,D7*%
X121892500Y-95155000D03*
X123767500Y-95155000D03*
%TD*%
D14*
%TO.C,R20*%
X129242500Y-97155000D03*
X127417500Y-97155000D03*
%TD*%
%TO.C,R17*%
X127417500Y-91155000D03*
X129242500Y-91155000D03*
%TD*%
D15*
%TO.C,D8*%
X121892500Y-97155000D03*
X123767500Y-97155000D03*
%TD*%
%TO.C,D5*%
X123767500Y-91155000D03*
X121892500Y-91155000D03*
%TD*%
D14*
%TO.C,R18*%
X127417500Y-93155000D03*
X129242500Y-93155000D03*
%TD*%
D15*
%TO.C,D6*%
X123767500Y-93155000D03*
X121892500Y-93155000D03*
%TD*%
D16*
%TO.C,D12*%
X137830000Y-94455000D03*
X137830000Y-92355000D03*
%TD*%
D17*
%TO.C,R2*%
X120330000Y-81492500D03*
X120330000Y-83317500D03*
%TD*%
D14*
%TO.C,R10*%
X129242500Y-88905000D03*
X127417500Y-88905000D03*
%TD*%
D18*
%TO.C,J2*%
X137790000Y-89920000D03*
X137790000Y-85890000D03*
X139060000Y-89920000D03*
X139060000Y-85890000D03*
X140330000Y-89920000D03*
X140330000Y-85890000D03*
X141600000Y-89920000D03*
X141600000Y-85890000D03*
X142870000Y-89920000D03*
X142870000Y-85890000D03*
%TD*%
D17*
%TO.C,R27*%
X162830000Y-73992500D03*
X162830000Y-75817500D03*
%TD*%
D14*
%TO.C,R14*%
X147942500Y-106405000D03*
X146117500Y-106405000D03*
%TD*%
D19*
%TO.C,C7*%
X170380000Y-121905000D03*
X172280000Y-121905000D03*
%TD*%
D14*
%TO.C,R22*%
X168742500Y-121905000D03*
X166917500Y-121905000D03*
%TD*%
D20*
%TO.C,J4*%
X181130000Y-105985000D03*
X173530000Y-105985000D03*
X181130000Y-103445000D03*
X173530000Y-103445000D03*
X181130000Y-100905000D03*
X173530000Y-100905000D03*
X181130000Y-98365000D03*
X173530000Y-98365000D03*
X181130000Y-95825000D03*
X173530000Y-95825000D03*
%TD*%
D21*
%TO.C,D13*%
X144580000Y-83455000D03*
X144580000Y-81355000D03*
%TD*%
D22*
%TO.C,D21*%
X176880000Y-86905000D03*
X174780000Y-86905000D03*
%TD*%
%TO.C,D20*%
X176880000Y-88905000D03*
X174780000Y-88905000D03*
%TD*%
D23*
%TO.C,Q4*%
X164892500Y-70455000D03*
X164892500Y-72355000D03*
X166767500Y-71405000D03*
%TD*%
D24*
%TO.C,H4*%
X178930000Y-125905000D03*
X179632944Y-124207944D03*
X179632944Y-127602056D03*
X181330000Y-123505000D03*
D25*
X181330000Y-125905000D03*
D24*
X181330000Y-128305000D03*
X183027056Y-124207944D03*
X183027056Y-127602056D03*
X183730000Y-125905000D03*
%TD*%
D14*
%TO.C,R13*%
X147942500Y-108905000D03*
X146117500Y-108905000D03*
%TD*%
D26*
%TO.C,U2*%
X127467500Y-75855000D03*
X127467500Y-74905000D03*
X127467500Y-73955000D03*
X125192500Y-73955000D03*
X125192500Y-74905000D03*
X125192500Y-75855000D03*
%TD*%
D17*
%TO.C,R26*%
X162830000Y-70492500D03*
X162830000Y-72317500D03*
%TD*%
D27*
%TO.C,R1*%
X156492500Y-63655000D03*
X154667500Y-63655000D03*
%TD*%
D19*
%TO.C,C10*%
X167880000Y-95905000D03*
X169780000Y-95905000D03*
%TD*%
%TO.C,C2*%
X148630000Y-65155000D03*
X150530000Y-65155000D03*
%TD*%
D22*
%TO.C,D16*%
X169880000Y-103405000D03*
X167780000Y-103405000D03*
%TD*%
D23*
%TO.C,Q5*%
X164892500Y-73955000D03*
X164892500Y-75855000D03*
X166767500Y-74905000D03*
%TD*%
D28*
%TO.C,R24*%
X162830000Y-102567500D03*
X162830000Y-100742500D03*
%TD*%
D27*
%TO.C,R7*%
X135492500Y-79155000D03*
X133667500Y-79155000D03*
%TD*%
D29*
%TO.C,J1*%
X120930000Y-72015000D03*
X120930000Y-77795000D03*
D30*
X122375000Y-71655000D03*
X122375000Y-72455000D03*
D31*
X122375000Y-73655000D03*
X122375000Y-74655000D03*
X122375000Y-75155000D03*
X122375000Y-76155000D03*
D30*
X122375000Y-77355000D03*
X122375000Y-78155000D03*
X122375000Y-78155000D03*
X122375000Y-77355000D03*
D31*
X122375000Y-76655000D03*
X122375000Y-75655000D03*
X122375000Y-74155000D03*
X122375000Y-73155000D03*
D30*
X122375000Y-72455000D03*
X122375000Y-71655000D03*
D32*
X121460000Y-70585000D03*
D33*
X117280000Y-70585000D03*
D32*
X121460000Y-79225000D03*
D33*
X117280000Y-79225000D03*
%TD*%
D34*
%TO.C,SW3*%
X160830000Y-123405000D03*
X152830000Y-123405000D03*
X160830000Y-125945000D03*
X160830000Y-120865000D03*
X152830000Y-120865000D03*
X152830000Y-125945000D03*
%TD*%
D22*
%TO.C,D18*%
X173380000Y-71905000D03*
X171280000Y-71905000D03*
%TD*%
D35*
%TO.C,C6*%
X124280000Y-119405000D03*
X122380000Y-119405000D03*
%TD*%
D24*
%TO.C,H3*%
X116930000Y-125905000D03*
X117632944Y-124207944D03*
X117632944Y-127602056D03*
X119330000Y-123505000D03*
D25*
X119330000Y-125905000D03*
D24*
X119330000Y-128305000D03*
X121027056Y-124207944D03*
X121027056Y-127602056D03*
X121730000Y-125905000D03*
%TD*%
D27*
%TO.C,R4*%
X131992500Y-79155000D03*
X130167500Y-79155000D03*
%TD*%
D22*
%TO.C,D14*%
X169880000Y-98405000D03*
X167780000Y-98405000D03*
%TD*%
D23*
%TO.C,Q1*%
X136580000Y-68655000D03*
X136580000Y-70555000D03*
X138455000Y-69605000D03*
%TD*%
D19*
%TO.C,C5*%
X126880000Y-124905000D03*
X128780000Y-124905000D03*
%TD*%
D24*
%TO.C,H1*%
X116930000Y-63905000D03*
X117632944Y-62207944D03*
X117632944Y-65602056D03*
X119330000Y-61505000D03*
D25*
X119330000Y-63905000D03*
D24*
X119330000Y-66305000D03*
X121027056Y-62207944D03*
X121027056Y-65602056D03*
X121730000Y-63905000D03*
%TD*%
D27*
%TO.C,R5*%
X123917500Y-82155000D03*
X125742500Y-82155000D03*
%TD*%
%TO.C,R16*%
X126917500Y-122905000D03*
X128742500Y-122905000D03*
%TD*%
D19*
%TO.C,C9*%
X170380000Y-119905000D03*
X172280000Y-119905000D03*
%TD*%
D15*
%TO.C,D3*%
X121892500Y-88905000D03*
X123767500Y-88905000D03*
%TD*%
D36*
%TO.C,C11*%
X172830000Y-77905000D03*
X172830000Y-76005000D03*
%TD*%
D22*
%TO.C,D19*%
X173380000Y-73905000D03*
X171280000Y-73905000D03*
%TD*%
D24*
%TO.C,H2*%
X178930000Y-63905000D03*
X179632944Y-62207944D03*
X179632944Y-65602056D03*
X181330000Y-61505000D03*
D25*
X181330000Y-63905000D03*
D24*
X181330000Y-66305000D03*
X183027056Y-62207944D03*
X183027056Y-65602056D03*
X183730000Y-63905000D03*
%TD*%
D22*
%TO.C,D1*%
X127880000Y-66405000D03*
X125780000Y-66405000D03*
%TD*%
D14*
%TO.C,R12*%
X147942500Y-111405000D03*
X146117500Y-111405000D03*
%TD*%
D19*
%TO.C,C3*%
X127380000Y-84155000D03*
X129280000Y-84155000D03*
%TD*%
D37*
%TO.C,U4*%
X123070000Y-117155000D03*
X124340000Y-117155000D03*
X125610000Y-117155000D03*
X126880000Y-117155000D03*
X128150000Y-117155000D03*
X129420000Y-117155000D03*
X130690000Y-117155000D03*
X131960000Y-117155000D03*
X133230000Y-117155000D03*
X134500000Y-117155000D03*
X135770000Y-117155000D03*
X137040000Y-117155000D03*
X138310000Y-117155000D03*
X139580000Y-117155000D03*
D38*
X140830000Y-115390000D03*
X140830000Y-114120000D03*
X140830000Y-112850000D03*
X140830000Y-111580000D03*
X140830000Y-110310000D03*
X140830000Y-109040000D03*
X140830000Y-107770000D03*
X140830000Y-106500000D03*
X140830000Y-105230000D03*
X140830000Y-103960000D03*
X140830000Y-102690000D03*
X140830000Y-101420000D03*
D37*
X139580000Y-99655000D03*
X138310000Y-99655000D03*
X137040000Y-99655000D03*
X135770000Y-99655000D03*
X134500000Y-99655000D03*
X133230000Y-99655000D03*
X131960000Y-99655000D03*
X130690000Y-99655000D03*
X129420000Y-99655000D03*
X128150000Y-99655000D03*
X126880000Y-99655000D03*
X125610000Y-99655000D03*
X124340000Y-99655000D03*
X123070000Y-99655000D03*
D39*
X129390000Y-111305000D03*
X130790000Y-111305000D03*
X132190000Y-111305000D03*
X129390000Y-109905000D03*
X130790000Y-109905000D03*
X132190000Y-109905000D03*
X129390000Y-108505000D03*
X130790000Y-108505000D03*
X132190000Y-108505000D03*
%TD*%
D14*
%TO.C,R28*%
X169742500Y-68405000D03*
X167917500Y-68405000D03*
%TD*%
D23*
%TO.C,Q3*%
X140955000Y-125205000D03*
X140955000Y-127105000D03*
X142830000Y-126155000D03*
%TD*%
D27*
%TO.C,R9*%
X132667500Y-65155000D03*
X134492500Y-65155000D03*
%TD*%
D16*
%TO.C,D11*%
X139830000Y-92355000D03*
X139830000Y-94455000D03*
%TD*%
D27*
%TO.C,R6*%
X129242500Y-82155000D03*
X127417500Y-82155000D03*
%TD*%
D14*
%TO.C,R15*%
X128742500Y-126905000D03*
X126917500Y-126905000D03*
%TD*%
D17*
%TO.C,R3*%
X118330000Y-83317500D03*
X118330000Y-81492500D03*
%TD*%
D40*
%TO.C,D2*%
X158142500Y-63655000D03*
X160017500Y-63655000D03*
%TD*%
D28*
%TO.C,R21*%
X138580000Y-127067500D03*
X138580000Y-125242500D03*
%TD*%
D35*
%TO.C,C8*%
X168780000Y-119905000D03*
X166880000Y-119905000D03*
%TD*%
D41*
%TO.C,U5*%
X167892500Y-115655000D03*
X167892500Y-116155000D03*
X167892500Y-116655000D03*
X167892500Y-117155000D03*
D42*
X168580000Y-117842500D03*
X169080000Y-117842500D03*
X169580000Y-117842500D03*
X170080000Y-117842500D03*
D41*
X170767500Y-117155000D03*
X170767500Y-116655000D03*
X170767500Y-116155000D03*
X170767500Y-115655000D03*
D42*
X170080000Y-114967500D03*
X169580000Y-114967500D03*
X169080000Y-114967500D03*
X168580000Y-114967500D03*
D43*
X169330000Y-116405000D03*
%TD*%
D44*
%TO.C,J6*%
X179005000Y-84405000D03*
X179005000Y-85405000D03*
X179005000Y-86405000D03*
X179005000Y-87405000D03*
D45*
X181530000Y-83105000D03*
X181530000Y-88705000D03*
%TD*%
D23*
%TO.C,Q2*%
X136580000Y-65155000D03*
X136580000Y-67055000D03*
X138455000Y-66105000D03*
%TD*%
D14*
%TO.C,R29*%
X169742500Y-77905000D03*
X167917500Y-77905000D03*
%TD*%
D28*
%TO.C,R25*%
X160580000Y-100742500D03*
X160580000Y-102567500D03*
%TD*%
D17*
%TO.C,R8*%
X134330000Y-66992500D03*
X134330000Y-68817500D03*
%TD*%
D46*
%TO.C,J3*%
X177330000Y-115905000D03*
X177330000Y-117905000D03*
D47*
X179580000Y-113505000D03*
X179580000Y-120305000D03*
%TD*%
D48*
%TO.C,SW2*%
X130755000Y-124830000D03*
X134905000Y-124830000D03*
X130755000Y-126980000D03*
X134880000Y-126980000D03*
%TD*%
D22*
%TO.C,D15*%
X169880000Y-100905000D03*
X167780000Y-100905000D03*
%TD*%
%TO.C,D17*%
X169880000Y-105905000D03*
X167780000Y-105905000D03*
%TD*%
D49*
%TO.C,U3*%
X130380000Y-73405000D03*
X130380000Y-73905000D03*
X130380000Y-74405000D03*
X130380000Y-74905000D03*
X130380000Y-75405000D03*
X130380000Y-75905000D03*
X130380000Y-76405000D03*
D50*
X131330000Y-77355000D03*
X131830000Y-77355000D03*
X132330000Y-77355000D03*
X132830000Y-77355000D03*
X133330000Y-77355000D03*
X133830000Y-77355000D03*
X134330000Y-77355000D03*
D49*
X135280000Y-76405000D03*
X135280000Y-75905000D03*
X135280000Y-75405000D03*
X135280000Y-74905000D03*
X135280000Y-74405000D03*
X135280000Y-73905000D03*
X135280000Y-73405000D03*
D50*
X134330000Y-72455000D03*
X133830000Y-72455000D03*
X133330000Y-72455000D03*
X132830000Y-72455000D03*
X132330000Y-72455000D03*
X131830000Y-72455000D03*
X131330000Y-72455000D03*
D51*
X132830000Y-74905000D03*
%TD*%
D16*
%TO.C,D10*%
X141830000Y-92355000D03*
X141830000Y-94455000D03*
%TD*%
D27*
%TO.C,R23*%
X168742500Y-123905000D03*
X166917500Y-123905000D03*
%TD*%
D52*
%TO.C,C12*%
X176330000Y-84855000D03*
X176330000Y-82955000D03*
%TD*%
D16*
%TO.C,D9*%
X143830000Y-94455000D03*
X143830000Y-92355000D03*
%TD*%
D15*
%TO.C,D4*%
X123767500Y-86905000D03*
X121892500Y-86905000D03*
%TD*%
D36*
%TO.C,C4*%
X128330000Y-79355000D03*
X128330000Y-77455000D03*
%TD*%
D53*
%TO.C,SW1*%
X158980000Y-111445000D03*
X158980000Y-108905000D03*
X158980000Y-106365000D03*
X150080000Y-106365000D03*
X150080000Y-108905000D03*
X150080000Y-111445000D03*
%TD*%
D54*
%TO.C,U1*%
X148680000Y-72205000D03*
D55*
X154980000Y-69905000D03*
D54*
X148680000Y-69905000D03*
X148680000Y-67605000D03*
%TD*%
D52*
%TO.C,C1*%
X146330000Y-69555000D03*
X146330000Y-67655000D03*
%TD*%
M02*
