M48
; DRILL file {KiCad 7.0.1} date Sun Apr 30 16:49:37 2023
; FORMAT={-:-/ absolute / inch / decimal}
; #@! TF.CreationDate,2023-04-30T16:49:37+02:00
; #@! TF.GenerationSoftware,Kicad,Pcbnew,7.0.1
; #@! TF.FileFunction,Plated,1,4,PTH
FMAT,2
INCH
; #@! TA.AperFunction,Plated,PTH,ViaDrill
T1C0.0118
; #@! TA.AperFunction,Plated,PTH,ComponentDrill
T2C0.0197
; #@! TA.AperFunction,Plated,PTH,ComponentDrill
T3C0.0236
; #@! TA.AperFunction,Plated,PTH,ComponentDrill
T4C0.1260
%
G90
G05
T1
X4.5602Y-2.5848
X4.5602Y-2.6144
X4.5602Y-2.6439
X4.5602Y-2.6734
X4.5602Y-2.703
X4.5602Y-2.7325
X4.5602Y-2.762
X4.5602Y-2.7915
X4.5602Y-2.8211
X4.5602Y-2.8506
X4.5602Y-2.8801
X4.5602Y-2.9096
X4.5602Y-2.9392
X4.5602Y-2.9687
X4.5602Y-2.9982
X4.5602Y-3.0278
X4.5602Y-3.0573
X4.5602Y-3.0868
X4.5602Y-3.1163
X4.5602Y-3.1459
X4.5602Y-3.1754
X4.5602Y-3.2049
X4.5602Y-3.2344
X4.5602Y-3.264
X4.5602Y-3.2935
X4.5602Y-3.323
X4.5602Y-3.3526
X4.5602Y-3.3821
X4.5602Y-3.4116
X4.5602Y-3.4411
X4.5602Y-3.4707
X4.5602Y-3.5002
X4.5602Y-3.5297
X4.5602Y-3.5593
X4.5602Y-3.5888
X4.5602Y-3.6183
X4.5602Y-3.6478
X4.5602Y-3.6774
X4.5602Y-3.7069
X4.5602Y-3.7364
X4.5602Y-3.7659
X4.5602Y-3.7955
X4.5602Y-3.825
X4.5602Y-3.8545
X4.5602Y-3.8841
X4.5602Y-4.6518
X4.5602Y-4.6813
X4.5602Y-4.7108
X4.5602Y-4.7404
X4.5602Y-4.7699
X4.5602Y-4.7994
X4.5602Y-4.8289
X4.5602Y-4.8585
X4.5602Y-4.888
X4.6587Y-2.89
X4.6783Y-4.701
X4.698Y-2.6931
X4.7472Y-4.7207
X4.7669Y-4.7994
X4.7669Y-5.0947
X4.7965Y-2.3781
X4.7965Y-5.0947
X4.826Y-2.3781
X4.826Y-5.0947
X4.8457Y-3.9825
X4.8457Y-4.5533
X4.8555Y-2.3781
X4.8555Y-5.0947
X4.8752Y-2.8112
X4.8752Y-2.8604
X4.8752Y-3.0376
X4.8752Y-3.0868
X4.885Y-2.3781
X4.885Y-4.3368
X4.885Y-5.0947
X4.9146Y-2.3781
X4.9146Y-5.0947
X4.9343Y-4.14
X4.9441Y-2.3781
X4.9441Y-5.0947
X4.9736Y-2.3781
X4.9736Y-2.4667
X4.9736Y-5.0947
X4.9835Y-3.0573
X4.9835Y-3.1459
X4.9835Y-4.5435
X4.9933Y-3.9825
X5.0031Y-2.3781
X5.0031Y-4.6911
X5.0031Y-5.0947
X5.01Y-4.382
X5.0327Y-2.3781
X5.0327Y-4.2581
X5.0327Y-5.0947
X5.0425Y-3.9825
X5.0524Y-2.8309
X5.0622Y-2.3781
X5.0622Y-2.9392
X5.0622Y-5.0947
X5.0917Y-2.3781
X5.0917Y-2.6439
X5.0917Y-2.89
X5.0917Y-5.0947
X5.1213Y-2.3781
X5.1213Y-5.0947
X5.1311Y-3.5494
X5.1311Y-3.6281
X5.1311Y-3.7069
X5.1311Y-3.7856
X5.1311Y-4.0809
X5.1508Y-2.3781
X5.1508Y-2.5848
X5.1508Y-4.5258
X5.1508Y-5.0947
X5.1705Y-3.5494
X5.1803Y-2.3781
X5.1803Y-2.703
X5.1803Y-2.762
X5.1803Y-4.0809
X5.1803Y-5.0947
X5.1902Y-2.9096
X5.1902Y-2.9884
X5.2098Y-2.3781
X5.2098Y-5.0947
X5.2197Y-3.2344
X5.2295Y-2.949
X5.2295Y-4.0809
X5.2394Y-2.3781
X5.2394Y-3.4608
X5.2394Y-5.0947
X5.2689Y-2.3781
X5.2689Y-2.9096
X5.2689Y-2.9884
X5.2689Y-5.0947
X5.2787Y-2.762
X5.2787Y-3.2738
X5.2787Y-3.638
X5.2787Y-4.0809
X5.2984Y-2.3781
X5.2984Y-5.0947
X5.3083Y-3.5199
X5.328Y-2.3781
X5.328Y-3.7364
X5.328Y-5.0947
X5.3378Y-4.3467
X5.3378Y-4.5258
X5.3476Y-3.8447
X5.3575Y-2.3781
X5.3575Y-3.4018
X5.3575Y-5.0947
X5.387Y-2.3781
X5.387Y-3.1163
X5.387Y-4.8978
X5.387Y-5.0947
X5.4165Y-2.3781
X5.4165Y-5.0947
X5.4264Y-3.6774
X5.4362Y-3.9923
X5.4362Y-4.4943
X5.4461Y-2.3781
X5.4461Y-3.2935
X5.4461Y-5.0947
X5.4559Y-3.2443
X5.4657Y-4.0415
X5.4756Y-2.3781
X5.4756Y-5.0947
X5.5051Y-2.3781
X5.5051Y-3.2049
X5.5051Y-3.6774
X5.5051Y-5.0947
X5.5346Y-2.3781
X5.5346Y-5.0947
X5.5642Y-2.3781
X5.5642Y-3.0573
X5.5642Y-3.2837
X5.5642Y-5.0947
X5.574Y-3.1656
X5.5839Y-3.6774
X5.5937Y-2.3781
X5.5937Y-5.0947
X5.6134Y-2.7522
X5.6134Y-3.8841
X5.6134Y-3.9392
X5.6232Y-2.3781
X5.6232Y-4.0711
X5.6232Y-5.0947
X5.6429Y-3.8348
X5.6429Y-4.4451
X5.6528Y-2.3781
X5.6528Y-2.4766
X5.6528Y-5.0947
X5.6626Y-3.6774
X5.6626Y-4.2285
X5.6724Y-4.3368
X5.6744Y-2.6697
X5.6823Y-2.3781
X5.6823Y-5.0947
X5.697Y-4.0366
X5.702Y-2.8801
X5.702Y-3.3919
X5.702Y-3.5396
X5.7118Y-2.3781
X5.7118Y-5.0947
X5.7413Y-2.3781
X5.7413Y-5.0947
X5.761Y-3.953
X5.7709Y-2.3781
X5.7709Y-2.5652
X5.7709Y-4.1104
X5.7709Y-5.0947
X5.7807Y-3.1852
X5.7807Y-3.2935
X5.7906Y-2.4667
X5.8004Y-2.3781
X5.8004Y-5.0947
X5.8201Y-4.6419
X5.8299Y-2.3781
X5.8299Y-5.0947
X5.8398Y-3.6872
X5.8594Y-2.3781
X5.8594Y-5.0947
X5.8791Y-3.3919
X5.889Y-2.3781
X5.889Y-3.0474
X5.889Y-5.0947
X5.9185Y-2.3781
X5.9185Y-3.7561
X5.9185Y-5.0947
X5.948Y-2.3781
X5.948Y-4.0514
X5.948Y-5.0947
X5.9579Y-4.6419
X5.9776Y-2.3781
X5.9776Y-5.0947
X5.9874Y-2.6734
X6.0071Y-2.3781
X6.0071Y-2.8407
X6.0071Y-5.0947
X6.0366Y-2.3781
X6.0366Y-5.0947
X6.0661Y-2.3781
X6.0661Y-3.3722
X6.0661Y-5.0947
X6.0957Y-2.3781
X6.0957Y-5.0947
X6.1252Y-2.3781
X6.1252Y-5.0947
X6.1547Y-2.3781
X6.1547Y-3.7659
X6.1547Y-5.0947
X6.1646Y-3.0868
X6.1843Y-2.3781
X6.1843Y-5.0947
X6.2039Y-2.6833
X6.2138Y-2.3781
X6.2138Y-3.1852
X6.2138Y-3.7758
X6.2138Y-4.0612
X6.2138Y-5.0947
X6.2433Y-2.3781
X6.2433Y-5.0947
X6.2728Y-2.3781
X6.2728Y-5.0947
X6.2827Y-2.7719
X6.3024Y-2.3781
X6.3024Y-5.0947
X6.3319Y-2.3781
X6.3319Y-5.0947
X6.3605Y-2.8891
X6.3614Y-2.3781
X6.3614Y-5.0947
X6.3713Y-2.6144
X6.3713Y-3.0868
X6.3811Y-3.4707
X6.3909Y-2.3781
X6.3909Y-5.0947
X6.4008Y-4.1203
X6.4205Y-2.3781
X6.4205Y-3.1852
X6.4205Y-5.0947
X6.45Y-2.3781
X6.45Y-5.0947
X6.4697Y-3.3624
X6.4697Y-4.2285
X6.4697Y-4.7502
X6.4795Y-2.3781
X6.4795Y-4.8486
X6.4795Y-5.0947
X6.5091Y-2.3781
X6.5091Y-5.0947
X6.5189Y-4.6616
X6.5386Y-2.3781
X6.5386Y-5.0947
X6.5484Y-3.823
X6.5583Y-3.51
X6.5583Y-4.4844
X6.5681Y-2.3781
X6.5681Y-4.6026
X6.5681Y-5.0947
X6.5799Y-2.8545
X6.5976Y-2.3781
X6.5976Y-5.0947
X6.6035Y-3.7128
X6.6173Y-3.264
X6.6272Y-2.3781
X6.6272Y-5.0947
X6.6469Y-2.4667
X6.6469Y-2.762
X6.6469Y-3.51
X6.6469Y-3.8742
X6.6469Y-3.9726
X6.6469Y-4.0711
X6.6469Y-4.1695
X6.6567Y-2.3781
X6.6567Y-5.0947
X6.6576Y-4.4755
X6.6665Y-2.8703
X6.6665Y-4.5829
X6.6764Y-4.2679
X6.6862Y-2.3781
X6.6862Y-3.1459
X6.6862Y-3.5494
X6.6862Y-5.0947
X6.6961Y-4.3663
X6.7157Y-2.3781
X6.7157Y-5.0947
X6.7453Y-2.3781
X6.7453Y-3.3132
X6.7453Y-5.0947
X6.765Y-4.5632
X6.7748Y-2.3781
X6.7748Y-4.6518
X6.7748Y-5.0947
X6.7846Y-2.8309
X6.7846Y-2.9096
X6.7945Y-3.2344
X6.8004Y-3.1222
X6.8043Y-2.3781
X6.8043Y-5.0947
X6.8142Y-2.6537
X6.824Y-4.5041
X6.8339Y-2.3781
X6.8339Y-3.2935
X6.8339Y-4.6715
X6.8339Y-5.0947
X6.8634Y-2.3781
X6.8634Y-5.0947
X6.8929Y-2.3781
X6.8929Y-5.0947
X6.9126Y-4.7108
X6.9126Y-4.8486
X6.9224Y-2.3781
X6.9224Y-2.575
X6.9224Y-3.4215
X6.9224Y-3.5002
X6.9224Y-5.0947
X6.952Y-2.3781
X6.952Y-5.0947
X6.9815Y-2.3781
X6.9815Y-5.0947
X7.011Y-2.3781
X7.011Y-5.0947
X7.0209Y-3.0435
X7.0209Y-3.0907
X7.0287Y-3.264
X7.0406Y-2.3781
X7.0406Y-5.0947
X7.0701Y-2.3781
X7.0701Y-5.0947
X7.2768Y-2.5848
X7.2768Y-2.6144
X7.2768Y-2.6439
X7.2768Y-2.6734
X7.2768Y-2.703
X7.2768Y-2.7325
X7.2768Y-2.762
X7.2768Y-2.7915
X7.2768Y-2.8211
X7.2768Y-2.8506
X7.2768Y-2.8801
X7.2768Y-2.9096
X7.2768Y-2.9392
X7.2768Y-2.9687
X7.2768Y-2.9982
X7.2768Y-3.0278
X7.2768Y-3.0573
X7.2768Y-3.0868
X7.2768Y-3.1163
X7.2768Y-3.1459
X7.2768Y-3.1754
X7.2768Y-3.2049
X7.2768Y-3.2344
X7.2768Y-3.264
X7.2768Y-3.2935
X7.2768Y-3.323
X7.2768Y-3.3526
X7.2768Y-3.3821
X7.2768Y-3.4116
X7.2768Y-3.4411
X7.2768Y-3.4707
X7.2768Y-3.5002
X7.2768Y-3.5297
X7.2768Y-3.5593
X7.2768Y-3.5888
X7.2768Y-3.6183
X7.2768Y-3.6478
X7.2768Y-3.6774
X7.2768Y-3.7069
X7.2768Y-3.7364
X7.2768Y-3.7659
X7.2768Y-3.7955
X7.2768Y-3.825
X7.2768Y-3.8545
X7.2768Y-3.8841
X7.2768Y-3.9136
X7.2768Y-3.9431
X7.2768Y-3.9726
X7.2768Y-4.0022
X7.2768Y-4.0317
X7.2768Y-4.0612
X7.2768Y-4.0907
X7.2768Y-4.1203
X7.2768Y-4.1498
X7.2768Y-4.1793
X7.2768Y-4.2089
X7.2768Y-4.2384
X7.2768Y-4.2679
X7.2768Y-4.2974
X7.2768Y-4.327
X7.2768Y-4.3565
X7.2768Y-4.386
X7.2768Y-4.4156
X7.2768Y-4.4451
X7.2768Y-4.4746
X7.2768Y-4.5041
X7.2768Y-4.5337
X7.2768Y-4.5632
X7.2768Y-4.5927
X7.2768Y-4.6222
X7.2768Y-4.6518
X7.2768Y-4.6813
X7.2768Y-4.7108
X7.2768Y-4.7404
X7.2768Y-4.7699
X7.2768Y-4.7994
X7.2768Y-4.8289
X7.2768Y-4.8585
X7.2768Y-4.888
T2
X4.6035Y-2.5159
X4.6035Y-4.9569
X4.6312Y-2.4491
X4.6312Y-2.5828
X4.6312Y-4.8901
X4.6312Y-5.0237
X4.698Y-2.4215
X4.698Y-2.6104
X4.698Y-4.8624
X4.698Y-5.0514
X4.7648Y-2.4491
X4.7648Y-2.5828
X4.7648Y-4.8901
X4.7648Y-5.0237
X4.7925Y-2.5159
X4.7925Y-4.9569
X7.0445Y-2.5159
X7.0445Y-4.9569
X7.0722Y-2.4491
X7.0722Y-2.5828
X7.0722Y-4.8901
X7.0722Y-5.0237
X7.139Y-2.4215
X7.139Y-2.6104
X7.139Y-4.8624
X7.139Y-5.0514
X7.2058Y-2.4491
X7.2058Y-2.5828
X7.2058Y-4.8901
X7.2058Y-5.0237
X7.2335Y-2.5159
X7.2335Y-4.9569
T4
X4.698Y-2.5159
X4.698Y-4.9569
X7.139Y-2.5159
X7.139Y-4.9569
T3
G00X4.6291Y-2.7789
M15
G01X4.6055Y-2.7789
M16
G05
G00X4.6291Y-3.1191
M15
G01X4.6055Y-3.1191
M16
G05
G00X4.8035Y-2.7789
M15
G01X4.7602Y-2.7789
M16
G05
G00X4.8035Y-3.1191
M15
G01X4.7602Y-3.1191
M16
G05
T0
M30
